# xmcd
#
# Track frame offsets: 
#        150
#        11422
#        40490
#        58405
#        80022
#        107675
#        124535
#        148450
#        174055
#        190587
#        213455
#        239060
#        251257
#        268322
#        287300
#        315997
#        332967
#
# Disc length: 4793 seconds
#
# Revision: 1
# Processed by: cddbd v1.5.2PL0 Copyright (c) Steve Scherf et al.
# Submitted via: ExactAudioCopy v1.3
#
DISCID=f912b711
DTITLE=Ketil Bjørnstad - Seafarer's Song
DYEAR=2004
DGENRE=Jazz
TTITLE0=Seafarer's Song
TTITLE1=He Struggled To The Surface
TTITLE2=Dying To Get To Europe
TTITLE3=Orion
TTITLE4=Tidal Wawes
TTITLE5=How Sweet The Moonlight Sleeps Upon This Bank
TTITLE6=Navigator
TTITLE7=Ung forelsket kvinne
TTITLE8=The Beach
TTITLE9=Her Voice
TTITLE10=Dreaming Of The North
TTITLE11=I Had Been Hungry, All The Years
TTITLE12=The Exile's Line
TTITLE13=When Police Came They Also Hit Me
TTITLE14=Refugees At The Rich Man's Gate
TTITLE15=I Many Times Thought Peace Had Come
TTITLE16=The Night Is Darkening Round Me
EXTD=YEAR: 2004
EXTT0=
EXTT1=
EXTT2=
EXTT3=
EXTT4=
EXTT5=
EXTT6=
EXTT7=
EXTT8=
EXTT9=
EXTT10=
EXTT11=
EXTT12=
EXTT13=
EXTT14=
EXTT15=
EXTT16=
PLAYORDER=
